<!-- Generated by IcoMoon.io -->
<svg version="1.1" xmlns="http://www.w3.org/2000/svg" width="35" height="32" viewBox="0 0 35 32">
<title>favicon</title>
<path fill="#ff3f3a" d="M15.52 13.92l-9.92-12.96c-0.64-0.64-1.44-0.96-2.24-0.96s-1.6 0.32-2.24 0.96c-1.12 1.28-1.12 3.2 0 4.48l7.84 10.56-7.84 10.56c-1.12 1.28-1.12 3.2 0 4.48 0.64 0.64 1.44 0.96 2.24 0.96s1.6-0.32 2.24-0.96l9.92-12.96c1.12-0.96 1.12-2.88 0-4.16z"></path>
<path fill="#ff3f3a" d="M19.748 13.92l9.92-12.96c0.64-0.64 1.44-0.96 2.24-0.96s1.6 0.32 2.24 0.96c1.12 1.28 1.12 3.2 0 4.48l-7.84 10.56 7.84 10.56c1.12 1.28 1.12 3.2 0 4.48-0.64 0.64-1.44 0.96-2.24 0.96s-1.6-0.32-2.24-0.96l-9.92-12.96c-1.12-0.96-1.12-2.88 0-4.16z"></path>
</svg>
