<svg aria-hidden="true" style="position: absolute; width: 0; height: 0; overflow: hidden;" version="1.1" xmlns="http://www.w3.org/2000/svg" xmlns:xlink="http://www.w3.org/1999/xlink">
<defs>
<symbol id="icon-Subtract" viewBox="0 0 43 32">
<path fill="#fff" style="fill: var(--color1, #fff)" d="M38.027 1.98c1.827 0.492 3.268 1.933 3.76 3.761 0.914 3.339 0.879 10.297 0.879 10.297s0 6.924-0.879 10.262c-0.492 1.827-1.933 3.268-3.761 3.76-3.339 0.879-16.694 0.879-16.694 0.879s-13.32 0-16.694-0.914c-1.828-0.492-3.269-1.933-3.761-3.761-0.879-3.304-0.879-10.262-0.879-10.262s0-6.924 0.879-10.262c0.492-1.827 1.968-3.304 3.76-3.796 3.339-0.879 16.694-0.879 16.694-0.879s13.355 0 16.694 0.914zM28.186 16.003l-11.106 6.396v-12.793l11.106 6.396z"></path>
</symbol>
<symbol id="icon-plus" viewBox="0 0 32 32">
<path d="M1.334 16c0-0.736 0.597-1.333 1.333-1.333h12v-12c0-0.736 0.597-1.333 1.333-1.333s1.333 0.597 1.333 1.333v12h12c0.736 0 1.333 0.597 1.333 1.333s-0.597 1.333-1.333 1.333h-12v12c0 0.736-0.597 1.333-1.333 1.333s-1.333-0.597-1.333-1.333v-12h-12c-0.736 0-1.333-0.597-1.333-1.333z"></path>
</symbol>
<symbol id="icon-play" viewBox="0 0 32 32">
<path d="M21.424 13.882c1.397 1.067 1.397 3.17 0 4.237l-6.107 4.667c-1.755 1.341-4.286 0.090-4.286-2.119v-9.335c0-2.209 2.531-3.46 4.286-2.119l6.107 4.667zM19.805 16.001l-6.107-4.667v9.335l6.107-4.667z"></path>
<path d="M16 4.001c-6.627 0-12 5.373-12 12s5.373 12 12 12 12-5.373 12-12c0-6.627-5.373-12-12-12zM1.333 16.001c0-8.1 6.566-14.667 14.667-14.667s14.667 6.566 14.667 14.667c0 8.1-6.566 14.667-14.667 14.667s-14.667-6.567-14.667-14.667z"></path>
</symbol>
<symbol id="icon-behance" viewBox="0 0 32 32">
<path fill="#787a80" style="fill: var(--color2, #787a80)" d="M16.487 20.192c0-2.628-1.172-4.571-3.594-5.299 1.767-0.897 2.689-2.257 2.689-4.372 0-4.17-2.923-5.187-6.296-5.187h-9.286v20.937h9.546c3.579 0 6.941-1.825 6.941-6.079zM4.329 8.907h4.062c1.562 0 2.967 0.466 2.967 2.392 0 1.778-1.094 2.493-2.64 2.493h-4.389v-4.885zM4.327 22.715v-5.766h4.718c1.906 0 3.111 0.845 3.111 2.99 0 2.115-1.439 2.776-3.201 2.776h-4.629z"></path>
<path fill="#787a80" style="fill: var(--color2, #787a80)" d="M25.066 26.667c3.406 0 5.612-1.631 6.673-5.099h-3.457c-0.372 1.294-1.906 1.978-3.095 1.978-2.295 0-3.501-1.429-3.501-3.859h10.286c0.325-4.861-2.214-9.004-6.908-9.004-4.346 0-7.296 3.473-7.296 8.023 0 4.722 2.795 7.96 7.297 7.96zM24.943 13.829c1.967 0 2.956 1.229 3.122 3.238h-6.373c0.129-1.993 1.374-3.238 3.251-3.238z"></path>
<path fill="#787a80" style="fill: var(--color2, #787a80)" d="M20.893 6.433h7.985v2.062h-7.985v-2.062z"></path>
</symbol>
<symbol id="icon-calendar" viewBox="0 0 30 32">
<path fill="#787a80" style="fill: var(--color2, #787a80)" d="M9.412 2.511c0.693 0 1.255 0.562 1.255 1.255v0.627l8.784 0v-0.627c0-0.693 0.562-1.255 1.255-1.255s1.255 0.562 1.255 1.255v0.627l1.569 0c2.772 0 5.019 2.247 5.019 5.020v15.059c0 2.772-2.247 5.020-5.019 5.020h-16.941c-2.772 0-5.020-2.247-5.020-5.019v-15.059c0-2.772 2.247-5.020 5.020-5.020h1.569v-0.627c0-0.693 0.562-1.255 1.255-1.255zM8.157 6.903h-1.569c-1.386 0-2.51 1.124-2.51 2.51v1.569h21.961v-1.569c0-1.386-1.124-2.51-2.51-2.51h-1.569v0.627c0 0.693-0.562 1.255-1.255 1.255s-1.255-0.562-1.255-1.255v-0.627l-8.784-0v0.627c0 0.693-0.562 1.255-1.255 1.255s-1.255-0.562-1.255-1.255v-0.627zM26.040 13.491h-21.961v10.98c0 1.386 1.124 2.51 2.51 2.51h16.941c1.386 0 2.51-1.124 2.51-2.51v-10.98z"></path>
</symbol>
<symbol id="icon-chat" viewBox="0 0 32 32">
<path  d="M29.231 14.091c-0.19 1.316-0.64 2.566-1.307 3.716 0.050 0.285 0.076 0.572 0.076 0.861 0 1.004-0.291 1.964-0.83 2.837-0.269 0.436-0.338 0.946-0.365 1.283-0.030 0.387-0.020 0.81 0.007 1.216 0.031 0.456 0.087 0.934 0.151 1.386-0.52-0.152-1.085-0.304-1.623-0.426-0.448-0.101-0.906-0.187-1.321-0.23-0.362-0.037-0.885-0.066-1.353 0.085-1.023 0.331-2.148 0.515-3.334 0.515-1.411 0-2.706-0.25-3.842-0.685-0.273 0.012-0.548 0.019-0.825 0.019-1.606 0-3.152-0.211-4.598-0.602 2.103 2.432 5.569 3.935 9.265 3.935 1.444 0 2.83-0.222 4.107-0.629 0.002 0 0.006 0 0.012 0 0.033-0.001 0.124-0.003 0.294 0.015 0.268 0.028 0.611 0.089 1.008 0.179 0.79 0.178 1.677 0.441 2.369 0.661 1.467 0.466 2.888-0.814 2.626-2.303-0.113-0.641-0.23-1.423-0.276-2.1-0.023-0.341-0.026-0.62-0.010-0.825 0.007-0.085 0.015-0.138 0.021-0.167 0.75-1.243 1.182-2.658 1.182-4.164 0-1.698-0.527-3.249-1.435-4.577z"></path>
<path d="M7.462 7.599c-1.797 1.374-2.796 3.179-2.796 5.069 0 0.943 0.245 1.851 0.706 2.695 0.175 0.322 0.225 0.653 0.243 0.878 0.019 0.245 0.010 0.497-0.012 0.732-0.043 0.471-0.144 1.005-0.266 1.531-0.143 0.615-0.326 1.271-0.511 1.887 0.704-0.256 1.474-0.518 2.204-0.731 0.59-0.172 1.185-0.321 1.716-0.405 0.457-0.072 1.119-0.143 1.69 0.054 1.28 0.443 2.713 0.693 4.231 0.693 2.863 0 5.405-0.889 7.204-2.264s2.796-3.179 2.796-5.069-0.999-3.695-2.796-5.069c-1.798-1.375-4.341-2.264-7.204-2.264s-5.405 0.889-7.204 2.264zM5.842 5.481c2.303-1.761 5.427-2.813 8.824-2.813s6.52 1.051 8.824 2.813c2.305 1.762 3.843 4.291 3.843 7.187s-1.538 5.425-3.843 7.187c-2.303 1.761-5.428 2.813-8.824 2.813-1.791 0-3.501-0.292-5.054-0.823-0.002 0.004-0.128-0.008-0.45 0.043-0.372 0.059-0.846 0.174-1.385 0.331-1.074 0.313-2.28 0.757-3.199 1.114-1.591 0.619-3.213-0.909-2.677-2.537 0.284-0.863 0.619-1.953 0.838-2.895 0.11-0.474 0.181-0.873 0.208-1.168 0.009-0.103 0.012-0.177 0.011-0.228-0.614-1.173-0.959-2.47-0.959-3.837 0-2.896 1.538-5.425 3.843-7.187z"></path>
</symbol>
<symbol id="icon-checked"  width="16" height="16" viewBox="0 0 32 32">
<path fill="#ff3f3a"  d="M16 30.667c8.087 0 14.667-6.579 14.667-14.667 0-1.396-0.195-2.771-0.581-4.089-0.19-0.648-0.866-1.020-1.516-0.83-0.648 0.189-1.019 0.868-0.83 1.516 0.32 1.095 0.482 2.24 0.482 3.403 0 6.739-5.483 12.222-12.222 12.222s-12.222-5.483-12.222-12.222c0-6.739 5.483-12.222 12.222-12.222 2.449 0 4.806 0.716 6.815 2.071 0.559 0.377 1.319 0.229 1.696-0.33s0.23-1.319-0.33-1.697c-2.414-1.628-5.243-2.488-8.181-2.488-8.087 0-14.667 6.579-14.667 14.667s6.58 14.667 14.667 14.667z"></path>
<path  fill="#ff3f3a" d="M29.723 3.058l-13.724 13.723-4.391-4.39c-0.521-0.521-1.365-0.521-1.885 0s-0.521 1.365 0 1.885l5.333 5.333c0.261 0.261 0.601 0.391 0.943 0.391s0.682-0.13 0.943-0.391l14.667-14.667c0.521-0.521 0.521-1.365 0-1.885s-1.365-0.521-1.885 0z"></path>
</symbol>
<symbol id="icon-circles-1" viewBox="0 0 14 32">
<path fill="#ffcf2d" style="fill: var(--color4, #ffcf2d)" opacity="0.12" d="M16.011 0c-8.851 0-16.011 7.16-16.011 16.011 0 8.829 7.16 16.011 16.011 16.011 8.829 0 16.011-7.16 16.011-16.011-0.022-8.851-7.182-16.011-16.011-16.011zM16.011 30.99c-8.28 0-14.979-6.699-14.979-14.979s6.699-14.979 14.979-14.979c8.28 0 14.979 6.699 14.979 14.979 0 8.258-6.721 14.979-14.979 14.979z"></path>
<path fill="#ffcf2d" style="fill: var(--color4, #ffcf2d)" opacity="0.12" d="M16.011 3.448c-6.918 0-12.541 5.623-12.541 12.541s5.622 12.541 12.541 12.541c6.918 0 12.541-5.601 12.541-12.519 0-6.94-5.623-12.563-12.541-12.563zM16.011 26.619c-5.864 0-10.63-4.766-10.63-10.63s4.766-10.63 10.63-10.63c5.864 0 10.63 4.766 10.63 10.63s-4.766 10.63-10.63 10.63z"></path>
</symbol>
<symbol id="icon-circles" viewBox="0 0 30 32">
<path fill="#fff" style="fill: var(--color1, #fff)" opacity="0.2" d="M5.234 0c-13.661 0-24.713 11.051-24.713 24.713 0 13.628 11.051 24.713 24.713 24.713 13.628 0 24.713-11.051 24.713-24.713-0.034-13.661-11.085-24.713-24.713-24.713zM5.234 47.832c-12.78 0-23.119-10.339-23.119-23.119s10.339-23.119 23.119-23.119c12.78 0 23.119 10.339 23.119 23.119 0 12.746-10.373 23.119-23.119 23.119z"></path>
<path fill="#fff" style="fill: var(--color1, #fff)" opacity="0.2" d="M5.235 5.322c-10.678 0-19.357 8.678-19.357 19.356s8.678 19.357 19.357 19.357 19.357-8.644 19.357-19.323c0-10.712-8.678-19.39-19.357-19.39zM5.235 41.086c-9.051 0-16.407-7.356-16.407-16.407s7.356-16.407 16.407-16.407 16.407 7.356 16.407 16.407c0 9.051-7.356 16.407-16.407 16.407z"></path>
<path fill="#fff" style="fill: var(--color1, #fff)" opacity="0.2" d="M5.234 13.831c-6 0-10.882 4.881-10.882 10.882s4.848 10.882 10.882 10.882c6 0 10.882-4.882 10.882-10.882-0.034-6-4.881-10.882-10.882-10.882zM5.234 30.543c-3.22 0-5.831-2.61-5.831-5.831s2.61-5.831 5.831-5.831 5.831 2.61 5.831 5.831c0 3.22-2.61 5.831-5.831 5.831z"></path>
</symbol>
<symbol id="icon-convert" viewBox="0 0 32 32">
<path fill="#424551" style="fill: var(--color5, #424551)" d="M2.799 2.667c0.736 0 1.333 0.597 1.333 1.333v5.915c2.211-4.303 6.693-7.248 11.867-7.248 5.807 0 10.745 3.712 12.574 8.889 0.245 0.694-0.119 1.456-0.813 1.701s-1.456-0.118-1.701-0.813c-1.465-4.145-5.418-7.111-10.060-7.111-3.947 0-7.395 2.144-9.24 5.333h4.040c0.736 0 1.333 0.597 1.333 1.333s-0.597 1.333-1.333 1.333h-8c-0.736 0-1.333-0.597-1.333-1.333v-8c0-0.736 0.597-1.333 1.333-1.333z"></path>
<path fill="#424551" style="fill: var(--color5, #424551)" d="M4.236 18.743c0.694-0.245 1.456 0.118 1.701 0.813 1.465 4.145 5.418 7.111 10.060 7.111 3.947 0 7.395-2.144 9.24-5.333h-4.040c-0.736 0-1.333-0.597-1.333-1.333s0.597-1.333 1.333-1.333h8c0.736 0 1.333 0.597 1.333 1.333v8c0 0.736-0.597 1.333-1.333 1.333s-1.333-0.597-1.333-1.333v-5.915c-2.211 4.303-6.693 7.248-11.867 7.248-5.808 0-10.745-3.712-12.574-8.889-0.245-0.694 0.119-1.456 0.813-1.701z"></path>
</symbol>
<symbol id="icon-dots-1" viewBox="0 0 15 32">
<path fill="#ffcf2d" style="fill: var(--color4, #ffcf2d)" opacity="0.8" d="M0.526 8.383c0.166 0.128 0.195 0.348 0.067 0.515s-0.348 0.196-0.515 0.068c-0.166-0.128-0.195-0.348-0.067-0.515s0.362-0.185 0.515-0.068z"></path>
<path fill="#ffcf2d" style="fill: var(--color4, #ffcf2d)" opacity="0.8" d="M2.435 5.899c0.166 0.128 0.195 0.348 0.067 0.515s-0.349 0.196-0.515 0.068c-0.166-0.128-0.195-0.348-0.067-0.515s0.362-0.185 0.515-0.068z"></path>
<path fill="#ffcf2d" style="fill: var(--color4, #ffcf2d)" opacity="0.8" d="M4.345 3.414c0.166 0.128 0.195 0.348 0.067 0.515s-0.348 0.196-0.515 0.068c-0.166-0.128-0.195-0.348-0.067-0.515 0.117-0.153 0.362-0.185 0.515-0.068z"></path>
<path fill="#ffcf2d" style="fill: var(--color4, #ffcf2d)" opacity="0.8" d="M0.688 12.438c0.166 0.128 0.195 0.348 0.067 0.515s-0.348 0.196-0.515 0.068c-0.166-0.128-0.195-0.348-0.067-0.515s0.348-0.196 0.515-0.068z"></path>
<path fill="#ffcf2d" style="fill: var(--color4, #ffcf2d)" opacity="0.8" d="M2.587 9.967c0.166 0.128 0.195 0.348 0.067 0.515s-0.349 0.196-0.515 0.068c-0.166-0.128-0.195-0.348-0.067-0.515s0.349-0.196 0.515-0.068z"></path>
<path fill="#ffcf2d" style="fill: var(--color4, #ffcf2d)" opacity="0.8" d="M4.497 7.483c0.166 0.128 0.195 0.348 0.067 0.515s-0.348 0.196-0.515 0.068c-0.166-0.128-0.195-0.348-0.067-0.515s0.349-0.196 0.515-0.068z"></path>
<path fill="#ffcf2d" style="fill: var(--color4, #ffcf2d)" opacity="0.8" d="M6.406 4.998c0.166 0.128 0.195 0.348 0.067 0.515s-0.348 0.196-0.515 0.068c-0.166-0.128-0.195-0.348-0.067-0.515 0.117-0.153 0.348-0.196 0.515-0.068z"></path>
<path fill="#ffcf2d" style="fill: var(--color4, #ffcf2d)" opacity="0.8" d="M0.236 0.257c0.166 0.128 0.195 0.348 0.067 0.515s-0.348 0.196-0.515 0.068c-0.166-0.128-0.195-0.348-0.067-0.515 0.117-0.153 0.348-0.196 0.515-0.068z"></path>
<path fill="#ffcf2d" style="fill: var(--color4, #ffcf2d)" opacity="0.8" d="M0.388 4.325c0.166 0.128 0.195 0.348 0.067 0.515s-0.348 0.196-0.515 0.068c-0.166-0.128-0.195-0.348-0.067-0.515s0.348-0.196 0.515-0.068z"></path>
<path fill="#ffcf2d" style="fill: var(--color4, #ffcf2d)" opacity="0.8" d="M2.297 1.841c0.166 0.128 0.195 0.348 0.067 0.515s-0.349 0.196-0.515 0.068c-0.166-0.128-0.195-0.348-0.067-0.515 0.117-0.153 0.348-0.196 0.515-0.068z"></path>
<path fill="#ffcf2d" style="fill: var(--color4, #ffcf2d)" opacity="0.8" d="M0.827 16.496c0.166 0.128 0.195 0.348 0.067 0.515s-0.349 0.196-0.515 0.068-0.195-0.348-0.067-0.515c0.117-0.153 0.362-0.185 0.515-0.068z"></path>
<path fill="#ffcf2d" style="fill: var(--color4, #ffcf2d)" opacity="0.8" d="M2.736 14.012c0.166 0.128 0.195 0.348 0.067 0.515s-0.349 0.196-0.515 0.068c-0.166-0.128-0.195-0.348-0.067-0.515s0.362-0.185 0.515-0.068z"></path>
<path fill="#ffcf2d" style="fill: var(--color4, #ffcf2d)" opacity="0.8" d="M4.635 11.541c0.166 0.128 0.195 0.348 0.067 0.515s-0.348 0.196-0.515 0.068c-0.166-0.128-0.195-0.348-0.067-0.515s0.362-0.185 0.515-0.068z"></path>
<path fill="#ffcf2d" style="fill: var(--color4, #ffcf2d)" opacity="0.8" d="M6.544 9.056c0.166 0.128 0.195 0.348 0.067 0.515s-0.348 0.196-0.515 0.068c-0.166-0.128-0.195-0.348-0.067-0.515s0.362-0.185 0.515-0.068z"></path>
<path fill="#ffcf2d" style="fill: var(--color4, #ffcf2d)" opacity="0.8" d="M8.453 6.572c0.166 0.128 0.195 0.348 0.067 0.515s-0.348 0.196-0.515 0.068c-0.166-0.128-0.195-0.348-0.067-0.515 0.117-0.153 0.362-0.185 0.515-0.068z"></path>
<path fill="#ffcf2d" style="fill: var(--color4, #ffcf2d)" opacity="0.8" d="M1.045 21.080c0.124-0.161 0.094-0.391-0.067-0.515s-0.391-0.093-0.515 0.068c-0.124 0.161-0.094 0.392 0.067 0.515s0.391 0.093 0.515-0.068z"></path>
<path fill="#ffcf2d" style="fill: var(--color4, #ffcf2d)" opacity="0.8" d="M2.888 18.080c0.166 0.128 0.195 0.348 0.067 0.515s-0.349 0.196-0.515 0.068c-0.166-0.128-0.195-0.348-0.067-0.515 0.117-0.153 0.349-0.196 0.515-0.068z"></path>
<path fill="#ffcf2d" style="fill: var(--color4, #ffcf2d)" opacity="0.8" d="M4.797 15.596c0.166 0.128 0.195 0.348 0.067 0.515s-0.348 0.196-0.515 0.068-0.195-0.348-0.067-0.515c0.128-0.167 0.348-0.196 0.515-0.068z"></path>
<path fill="#ffcf2d" style="fill: var(--color4, #ffcf2d)" opacity="0.8" d="M6.696 13.125c0.166 0.128 0.195 0.348 0.067 0.515s-0.348 0.196-0.515 0.068c-0.166-0.128-0.195-0.348-0.067-0.515s0.348-0.196 0.515-0.068z"></path>
<path fill="#ffcf2d" style="fill: var(--color4, #ffcf2d)" opacity="0.8" d="M8.672 11.155c0.124-0.161 0.094-0.391-0.067-0.515s-0.391-0.093-0.515 0.068c-0.124 0.161-0.094 0.391 0.067 0.515s0.391 0.093 0.515-0.068z"></path>
<path fill="#ffcf2d" style="fill: var(--color4, #ffcf2d)" opacity="0.8" d="M10.515 8.156c0.166 0.128 0.195 0.348 0.067 0.515s-0.348 0.196-0.515 0.068c-0.166-0.128-0.195-0.348-0.067-0.515 0.117-0.153 0.348-0.196 0.515-0.068z"></path>
<path fill="#ffcf2d" style="fill: var(--color4, #ffcf2d)" opacity="0.8" d="M1.131 24.634c0.166 0.128 0.195 0.348 0.067 0.515s-0.349 0.196-0.515 0.068-0.195-0.348-0.067-0.515c0.128-0.167 0.349-0.196 0.515-0.068z"></path>
<path fill="#ffcf2d" style="fill: var(--color4, #ffcf2d)" opacity="0.8" d="M3.040 22.149c0.166 0.128 0.195 0.348 0.067 0.515s-0.349 0.196-0.515 0.068c-0.166-0.128-0.195-0.348-0.067-0.515s0.349-0.196 0.515-0.068z"></path>
<path fill="#ffcf2d" style="fill: var(--color4, #ffcf2d)" opacity="0.8" d="M4.949 19.665c0.166 0.128 0.195 0.348 0.067 0.515s-0.348 0.196-0.515 0.068c-0.166-0.128-0.195-0.348-0.067-0.515 0.117-0.153 0.348-0.196 0.515-0.068z"></path>
<path fill="#ffcf2d" style="fill: var(--color4, #ffcf2d)" opacity="0.8" d="M6.859 17.18c0.166 0.128 0.195 0.348 0.067 0.515s-0.348 0.196-0.515 0.068c-0.166-0.128-0.195-0.348-0.067-0.515s0.348-0.196 0.515-0.068z"></path>
<path fill="#ffcf2d" style="fill: var(--color4, #ffcf2d)" opacity="0.8" d="M8.757 14.709c0.166 0.128 0.195 0.348 0.067 0.515s-0.348 0.196-0.515 0.068c-0.166-0.128-0.195-0.348-0.067-0.515s0.348-0.196 0.515-0.068z"></path>
<path fill="#ffcf2d" style="fill: var(--color4, #ffcf2d)" opacity="0.8" d="M10.667 12.225c0.166 0.128 0.195 0.348 0.067 0.515s-0.348 0.196-0.515 0.068c-0.166-0.128-0.195-0.348-0.067-0.515s0.348-0.196 0.515-0.068z"></path>
<path fill="#ffcf2d" style="fill: var(--color4, #ffcf2d)" opacity="0.8" d="M12.576 9.74c0.166 0.128 0.195 0.348 0.067 0.515s-0.348 0.196-0.515 0.068c-0.166-0.128-0.195-0.348-0.067-0.515 0.117-0.153 0.348-0.196 0.515-0.068z"></path>
<path fill="#ffcf2d" style="fill: var(--color4, #ffcf2d)" opacity="0.8" d="M1.279 28.678c0.166 0.128 0.195 0.348 0.067 0.515s-0.349 0.196-0.515 0.068c-0.166-0.128-0.195-0.348-0.067-0.515 0.117-0.153 0.362-0.185 0.515-0.068z"></path>
<path fill="#ffcf2d" style="fill: var(--color4, #ffcf2d)" opacity="0.8" d="M3.178 26.207c0.166 0.128 0.195 0.348 0.067 0.515s-0.349 0.196-0.515 0.068c-0.166-0.128-0.195-0.348-0.067-0.515s0.362-0.185 0.515-0.068z"></path>
<path fill="#ffcf2d" style="fill: var(--color4, #ffcf2d)" opacity="0.8" d="M5.087 23.723c0.166 0.128 0.195 0.348 0.067 0.515s-0.348 0.196-0.515 0.068c-0.166-0.128-0.195-0.348-0.067-0.515s0.362-0.185 0.515-0.068z"></path>
<path fill="#ffcf2d" style="fill: var(--color4, #ffcf2d)" opacity="0.8" d="M6.997 21.238c0.166 0.128 0.195 0.348 0.067 0.515s-0.348 0.196-0.515 0.068-0.195-0.348-0.067-0.515c0.117-0.153 0.362-0.185 0.515-0.068z"></path>
<path fill="#ffcf2d" style="fill: var(--color4, #ffcf2d)" opacity="0.8" d="M8.906 18.753c0.166 0.128 0.195 0.348 0.067 0.515s-0.348 0.196-0.515 0.068c-0.166-0.128-0.195-0.348-0.067-0.515s0.362-0.185 0.515-0.068z"></path>
<path fill="#ffcf2d" style="fill: var(--color4, #ffcf2d)" opacity="0.8" d="M10.805 16.283c0.166 0.128 0.195 0.348 0.067 0.515s-0.348 0.196-0.515 0.068c-0.166-0.128-0.195-0.348-0.067-0.515s0.362-0.185 0.515-0.068z"></path>
<path fill="#ffcf2d" style="fill: var(--color4, #ffcf2d)" opacity="0.8" d="M12.714 13.798c0.166 0.128 0.195 0.348 0.067 0.515s-0.348 0.196-0.515 0.068c-0.166-0.128-0.195-0.348-0.067-0.515s0.362-0.185 0.515-0.068z"></path>
<path fill="#ffcf2d" style="fill: var(--color4, #ffcf2d)" opacity="0.8" d="M14.624 11.313c0.166 0.128 0.195 0.348 0.067 0.515s-0.349 0.196-0.515 0.068c-0.166-0.128-0.195-0.348-0.067-0.515 0.117-0.153 0.362-0.185 0.514-0.068z"></path>
</symbol>
<symbol id="icon-dots" viewBox="0 0 37 32">
<path fill="#fff" style="fill: var(--color1, #fff)" opacity="0.8" d="M1.246 9.405c0 0.355-0.267 0.621-0.623 0.621s-0.623-0.266-0.623-0.621c0-0.355 0.267-0.621 0.623-0.621s0.623 0.296 0.623 0.621z"></path>
<path fill="#fff" style="fill: var(--color1, #fff)" opacity="0.8" d="M6.558 9.405c0 0.355-0.267 0.621-0.623 0.621s-0.623-0.266-0.623-0.621c0-0.355 0.267-0.621 0.623-0.621 0.326 0 0.623 0.296 0.623 0.621z"></path>
<path fill="#fff" style="fill: var(--color1, #fff)" opacity="0.8" d="M11.84 9.405c0 0.355-0.267 0.621-0.623 0.621s-0.623-0.266-0.623-0.621c0-0.355 0.267-0.621 0.623-0.621s0.623 0.296 0.623 0.621z"></path>
<path fill="#fff" style="fill: var(--color1, #fff)" opacity="0.8" d="M17.151 9.405c0 0.355-0.267 0.621-0.623 0.621s-0.623-0.266-0.623-0.621c0-0.355 0.267-0.621 0.623-0.621s0.623 0.296 0.623 0.621z"></path>
<path fill="#fff" style="fill: var(--color1, #fff)" opacity="0.8" d="M22.462 9.405c0 0.355-0.267 0.621-0.623 0.621s-0.623-0.266-0.623-0.621c0-0.355 0.267-0.621 0.623-0.621 0.326 0 0.623 0.296 0.623 0.621z"></path>
<path fill="#fff" style="fill: var(--color1, #fff)" opacity="0.8" d="M27.774 9.405c0 0.355-0.267 0.621-0.623 0.621s-0.623-0.266-0.623-0.621 0.267-0.621 0.623-0.621c0.356 0 0.623 0.296 0.623 0.621z"></path>
<path fill="#fff" style="fill: var(--color1, #fff)" opacity="0.8" d="M33.056 9.405c0 0.355-0.267 0.621-0.623 0.621s-0.623-0.266-0.623-0.621 0.267-0.621 0.623-0.621c0.356 0 0.623 0.296 0.623 0.621z"></path>
<path fill="#fff" style="fill: var(--color1, #fff)" opacity="0.8" d="M1.246 13.812c0 0.355-0.267 0.621-0.623 0.621s-0.623-0.266-0.623-0.621c0-0.355 0.267-0.621 0.623-0.621s0.623 0.266 0.623 0.621z"></path>
<path fill="#fff" style="fill: var(--color1, #fff)" opacity="0.8" d="M6.558 13.812c0 0.355-0.267 0.621-0.623 0.621s-0.623-0.266-0.623-0.621c0-0.355 0.267-0.621 0.623-0.621 0.326 0 0.623 0.266 0.623 0.621z"></path>
<path fill="#fff" style="fill: var(--color1, #fff)" opacity="0.8" d="M11.84 13.812c0 0.355-0.267 0.621-0.623 0.621s-0.623-0.266-0.623-0.621c0-0.355 0.267-0.621 0.623-0.621s0.623 0.266 0.623 0.621z"></path>
<path fill="#fff" style="fill: var(--color1, #fff)" opacity="0.8" d="M17.151 13.812c0 0.355-0.267 0.621-0.623 0.621s-0.623-0.266-0.623-0.621c0-0.355 0.267-0.621 0.623-0.621s0.623 0.266 0.623 0.621z"></path>
<path fill="#fff" style="fill: var(--color1, #fff)" opacity="0.8" d="M22.462 13.812c0 0.355-0.267 0.621-0.623 0.621s-0.623-0.266-0.623-0.621c0-0.355 0.267-0.621 0.623-0.621 0.326 0 0.623 0.266 0.623 0.621z"></path>
<path fill="#fff" style="fill: var(--color1, #fff)" opacity="0.8" d="M27.774 13.812c0 0.355-0.267 0.621-0.623 0.621s-0.623-0.266-0.623-0.621 0.267-0.621 0.623-0.621c0.356 0 0.623 0.266 0.623 0.621z"></path>
<path fill="#fff" style="fill: var(--color1, #fff)" opacity="0.8" d="M33.056 13.812c0 0.355-0.267 0.621-0.623 0.621s-0.623-0.266-0.623-0.621 0.267-0.621 0.623-0.621c0.356 0 0.623 0.266 0.623 0.621z"></path>
<path fill="#fff" style="fill: var(--color1, #fff)" opacity="0.8" d="M1.246 0.621c0 0.355-0.267 0.621-0.623 0.621s-0.623-0.266-0.623-0.621c0-0.355 0.267-0.621 0.623-0.621s0.623 0.266 0.623 0.621z"></path>
<path fill="#fff" style="fill: var(--color1, #fff)" opacity="0.8" d="M6.558 0.621c0 0.355-0.267 0.621-0.623 0.621s-0.623-0.266-0.623-0.621c0-0.355 0.267-0.621 0.623-0.621 0.326 0 0.623 0.266 0.623 0.621z"></path>
<path fill="#fff" style="fill: var(--color1, #fff)" opacity="0.8" d="M11.84 0.621c0 0.355-0.267 0.621-0.623 0.621s-0.623-0.266-0.623-0.621c0-0.355 0.297-0.621 0.623-0.621 0.356 0 0.623 0.266 0.623 0.621z"></path>
<path fill="#fff" style="fill: var(--color1, #fff)" opacity="0.8" d="M17.151 0.621c0 0.355-0.267 0.621-0.623 0.621s-0.623-0.266-0.623-0.621c0-0.355 0.297-0.621 0.623-0.621s0.623 0.266 0.623 0.621z"></path>
<path fill="#fff" style="fill: var(--color1, #fff)" opacity="0.8" d="M22.462 0.621c0 0.355-0.267 0.621-0.623 0.621s-0.623-0.266-0.623-0.621c0-0.355 0.267-0.621 0.623-0.621 0.326 0 0.623 0.266 0.623 0.621z"></path>
<path fill="#fff" style="fill: var(--color1, #fff)" opacity="0.8" d="M27.774 0.621c0 0.355-0.267 0.621-0.623 0.621s-0.623-0.266-0.623-0.621 0.267-0.621 0.623-0.621c0.356 0 0.623 0.266 0.623 0.621z"></path>
<path fill="#fff" style="fill: var(--color1, #fff)" opacity="0.8" d="M33.056 0.621c0 0.355-0.267 0.621-0.623 0.621s-0.623-0.266-0.623-0.621 0.267-0.621 0.623-0.621c0.356 0 0.623 0.266 0.623 0.621z"></path>
<path fill="#fff" style="fill: var(--color1, #fff)" opacity="0.8" d="M1.246 5.028c0 0.355-0.267 0.621-0.623 0.621s-0.623-0.296-0.623-0.621c0-0.355 0.267-0.621 0.623-0.621s0.623 0.266 0.623 0.621z"></path>
<path fill="#fff" style="fill: var(--color1, #fff)" opacity="0.8" d="M6.558 5.028c0 0.355-0.267 0.621-0.623 0.621s-0.623-0.266-0.623-0.621c0-0.355 0.267-0.621 0.623-0.621 0.326 0 0.623 0.266 0.623 0.621z"></path>
<path fill="#fff" style="fill: var(--color1, #fff)" opacity="0.8" d="M11.84 5.028c0 0.355-0.267 0.621-0.623 0.621s-0.623-0.266-0.623-0.621c0-0.355 0.267-0.621 0.623-0.621s0.623 0.266 0.623 0.621z"></path>
<path fill="#fff" style="fill: var(--color1, #fff)" opacity="0.8" d="M17.151 5.028c0 0.355-0.267 0.621-0.623 0.621s-0.623-0.266-0.623-0.621c0-0.355 0.267-0.621 0.623-0.621s0.623 0.266 0.623 0.621z"></path>
<path fill="#fff" style="fill: var(--color1, #fff)" opacity="0.8" d="M22.462 5.028c0 0.355-0.267 0.621-0.623 0.621s-0.623-0.266-0.623-0.621c0-0.355 0.267-0.621 0.623-0.621 0.326 0 0.623 0.266 0.623 0.621z"></path>
<path fill="#fff" style="fill: var(--color1, #fff)" opacity="0.8" d="M27.774 5.028c0 0.355-0.267 0.621-0.623 0.621s-0.623-0.266-0.623-0.621 0.267-0.621 0.623-0.621c0.356 0 0.623 0.266 0.623 0.621z"></path>
<path fill="#fff" style="fill: var(--color1, #fff)" opacity="0.8" d="M33.056 5.028c0 0.355-0.267 0.621-0.623 0.621s-0.623-0.266-0.623-0.621 0.267-0.621 0.623-0.621c0.356 0 0.623 0.266 0.623 0.621z"></path>
<path fill="#fff" style="fill: var(--color1, #fff)" opacity="0.8" d="M1.246 18.189c0 0.355-0.267 0.621-0.623 0.621s-0.623-0.266-0.623-0.621c0-0.355 0.267-0.621 0.623-0.621s0.623 0.296 0.623 0.621z"></path>
<path fill="#fff" style="fill: var(--color1, #fff)" opacity="0.8" d="M6.558 18.189c0 0.355-0.267 0.621-0.623 0.621s-0.623-0.266-0.623-0.621c0-0.355 0.267-0.621 0.623-0.621 0.326 0 0.623 0.296 0.623 0.621z"></path>
<path fill="#fff" style="fill: var(--color1, #fff)" opacity="0.8" d="M11.84 18.189c0 0.355-0.267 0.621-0.623 0.621s-0.623-0.266-0.623-0.621c0-0.355 0.267-0.621 0.623-0.621s0.623 0.296 0.623 0.621z"></path>
<path fill="#fff" style="fill: var(--color1, #fff)" opacity="0.8" d="M17.151 18.189c0 0.355-0.267 0.621-0.623 0.621s-0.623-0.266-0.623-0.621c0-0.355 0.267-0.621 0.623-0.621s0.623 0.296 0.623 0.621z"></path>
<path fill="#fff" style="fill: var(--color1, #fff)" opacity="0.8" d="M22.462 18.189c0 0.355-0.267 0.621-0.623 0.621s-0.623-0.266-0.623-0.621c0-0.355 0.267-0.621 0.623-0.621 0.326 0 0.623 0.296 0.623 0.621z"></path>
<path fill="#fff" style="fill: var(--color1, #fff)" opacity="0.8" d="M27.774 18.189c0 0.355-0.267 0.621-0.623 0.621s-0.623-0.266-0.623-0.621 0.267-0.621 0.623-0.621c0.356 0 0.623 0.296 0.623 0.621z"></path>
<path fill="#fff" style="fill: var(--color1, #fff)" opacity="0.8" d="M33.056 18.189c0 0.355-0.267 0.621-0.623 0.621s-0.623-0.266-0.623-0.621 0.267-0.621 0.623-0.621c0.356 0 0.623 0.296 0.623 0.621z"></path>
<path fill="#fff" style="fill: var(--color1, #fff)" opacity="0.8" d="M1.246 22.595c0 0.355-0.267 0.621-0.623 0.621s-0.623-0.266-0.623-0.621c0-0.355 0.267-0.621 0.623-0.621s0.623 0.266 0.623 0.621z"></path>
<path fill="#fff" style="fill: var(--color1, #fff)" opacity="0.8" d="M6.558 22.595c0 0.355-0.267 0.621-0.623 0.621s-0.623-0.266-0.623-0.621c0-0.355 0.267-0.621 0.623-0.621 0.326 0 0.623 0.266 0.623 0.621z"></path>
<path fill="#fff" style="fill: var(--color1, #fff)" opacity="0.8" d="M11.84 22.595c0 0.355-0.267 0.621-0.623 0.621s-0.623-0.266-0.623-0.621c0-0.355 0.267-0.621 0.623-0.621s0.623 0.266 0.623 0.621z"></path>
<path fill="#fff" style="fill: var(--color1, #fff)" opacity="0.8" d="M16.528 23.216c0.344 0 0.623-0.278 0.623-0.621s-0.279-0.621-0.623-0.621c-0.344 0-0.623 0.278-0.623 0.621s0.279 0.621 0.623 0.621z"></path>
<path fill="#fff" style="fill: var(--color1, #fff)" opacity="0.8" d="M22.462 22.595c0 0.355-0.267 0.621-0.623 0.621s-0.623-0.266-0.623-0.621c0-0.355 0.267-0.621 0.623-0.621 0.326 0 0.623 0.266 0.623 0.621z"></path>
<path fill="#fff" style="fill: var(--color1, #fff)" opacity="0.8" d="M27.774 22.595c0 0.355-0.267 0.621-0.623 0.621s-0.623-0.266-0.623-0.621 0.267-0.621 0.623-0.621c0.356 0 0.623 0.266 0.623 0.621z"></path>
<path fill="#fff" style="fill: var(--color1, #fff)" opacity="0.8" d="M33.056 22.595c0 0.355-0.267 0.621-0.623 0.621s-0.623-0.266-0.623-0.621 0.267-0.621 0.623-0.621c0.356 0 0.623 0.266 0.623 0.621z"></path>
<path fill="#fff" style="fill: var(--color1, #fff)" opacity="0.8" d="M1.246 27.002c0 0.355-0.267 0.621-0.623 0.621s-0.623-0.266-0.623-0.621c0-0.355 0.267-0.621 0.623-0.621s0.623 0.266 0.623 0.621z"></path>
<path fill="#fff" style="fill: var(--color1, #fff)" opacity="0.8" d="M6.558 27.002c0 0.355-0.267 0.621-0.623 0.621s-0.623-0.266-0.623-0.621c0-0.355 0.267-0.621 0.623-0.621 0.326 0 0.623 0.266 0.623 0.621z"></path>
<path fill="#fff" style="fill: var(--color1, #fff)" opacity="0.8" d="M11.84 27.002c0 0.355-0.267 0.621-0.623 0.621s-0.623-0.266-0.623-0.621c0-0.355 0.267-0.621 0.623-0.621s0.623 0.266 0.623 0.621z"></path>
<path fill="#fff" style="fill: var(--color1, #fff)" opacity="0.8" d="M17.151 27.002c0 0.355-0.267 0.621-0.623 0.621s-0.623-0.266-0.623-0.621c0-0.355 0.267-0.621 0.623-0.621s0.623 0.266 0.623 0.621z"></path>
<path fill="#fff" style="fill: var(--color1, #fff)" opacity="0.8" d="M22.462 27.002c0 0.355-0.267 0.621-0.623 0.621s-0.623-0.266-0.623-0.621c0-0.355 0.267-0.621 0.623-0.621 0.326 0 0.623 0.266 0.623 0.621z"></path>
<path fill="#fff" style="fill: var(--color1, #fff)" opacity="0.8" d="M27.774 27.002c0 0.355-0.267 0.621-0.623 0.621s-0.623-0.266-0.623-0.621c0-0.355 0.267-0.621 0.623-0.621s0.623 0.266 0.623 0.621z"></path>
<path fill="#fff" style="fill: var(--color1, #fff)" opacity="0.8" d="M33.056 27.002c0 0.355-0.267 0.621-0.623 0.621s-0.623-0.266-0.623-0.621c0-0.355 0.267-0.621 0.623-0.621s0.623 0.266 0.623 0.621z"></path>
<path fill="#fff" style="fill: var(--color1, #fff)" opacity="0.8" d="M1.246 31.379c0 0.355-0.267 0.621-0.623 0.621s-0.623-0.266-0.623-0.621c0-0.355 0.267-0.621 0.623-0.621s0.623 0.296 0.623 0.621z"></path>
<path fill="#fff" style="fill: var(--color1, #fff)" opacity="0.8" d="M6.558 31.379c0 0.355-0.267 0.621-0.623 0.621s-0.623-0.266-0.623-0.621c0-0.355 0.267-0.621 0.623-0.621 0.326 0 0.623 0.296 0.623 0.621z"></path>
<path fill="#fff" style="fill: var(--color1, #fff)" opacity="0.8" d="M11.84 31.379c0 0.355-0.267 0.621-0.623 0.621s-0.623-0.266-0.623-0.621c0-0.355 0.267-0.621 0.623-0.621s0.623 0.296 0.623 0.621z"></path>
<path fill="#fff" style="fill: var(--color1, #fff)" opacity="0.8" d="M17.151 31.379c0 0.355-0.267 0.621-0.623 0.621s-0.623-0.266-0.623-0.621c0-0.355 0.267-0.621 0.623-0.621s0.623 0.296 0.623 0.621z"></path>
<path fill="#fff" style="fill: var(--color1, #fff)" opacity="0.8" d="M22.462 31.379c0 0.355-0.267 0.621-0.623 0.621s-0.623-0.266-0.623-0.621c0-0.355 0.267-0.621 0.623-0.621 0.326 0 0.623 0.296 0.623 0.621z"></path>
<path fill="#fff" style="fill: var(--color1, #fff)" opacity="0.8" d="M27.774 31.379c0 0.355-0.267 0.621-0.623 0.621s-0.623-0.266-0.623-0.621c0-0.355 0.267-0.621 0.623-0.621s0.623 0.296 0.623 0.621z"></path>
<path fill="#fff" style="fill: var(--color1, #fff)" opacity="0.8" d="M33.056 31.379c0 0.355-0.267 0.621-0.623 0.621s-0.623-0.266-0.623-0.621c0-0.355 0.267-0.621 0.623-0.621s0.623 0.296 0.623 0.621z"></path>
</symbol>
<symbol id="icon-eye" viewBox="0 0 32 32">
<path fill="#424551" style="fill: var(--color5, #424551)" d="M3.522 11.357c3.605-3.008 7.756-4.691 12.146-4.691s8.54 1.683 12.146 4.691c0.565 0.472 1.406 0.396 1.878-0.17s0.396-1.406-0.17-1.878c-4.009-3.345-8.748-5.31-13.854-5.31s-9.845 1.965-13.854 5.31c-0.565 0.472-0.641 1.313-0.17 1.878s1.313 0.641 1.878 0.17z"></path>
<path fill="#424551" style="fill: var(--color5, #424551)" d="M5.468 12.919c2.398-2.025 5.818-3.919 9.699-3.919s7.301 1.894 9.699 3.919c1.209 1.021 2.2 2.109 2.9 3.080 0.35 0.485 0.641 0.961 0.851 1.402 0.193 0.405 0.383 0.917 0.383 1.432s-0.19 1.027-0.383 1.432c-0.21 0.441-0.501 0.917-0.851 1.402-0.7 0.972-1.691 2.060-2.9 3.080-2.398 2.024-5.818 3.919-9.699 3.919s-7.301-1.894-9.699-3.919c-1.209-1.021-2.2-2.109-2.9-3.080-0.35-0.485-0.641-0.961-0.851-1.402-0.193-0.405-0.383-0.917-0.383-1.432s0.19-1.027 0.383-1.432c0.21-0.441 0.501-0.917 0.851-1.402 0.7-0.972 1.692-2.060 2.9-3.080zM4.010 18.833c0.013 0.045 0.045 0.138 0.115 0.287 0.123 0.259 0.323 0.595 0.606 0.988 0.565 0.783 1.404 1.713 2.457 2.602 2.126 1.795 4.956 3.29 7.979 3.29s5.853-1.495 7.979-3.29c1.053-0.889 1.893-1.819 2.457-2.602 0.283-0.393 0.483-0.729 0.606-0.988 0.071-0.149 0.102-0.242 0.115-0.287-0.014-0.045-0.045-0.138-0.115-0.287-0.123-0.259-0.323-0.595-0.606-0.988-0.565-0.783-1.404-1.713-2.457-2.602-0.447-0.378-0.925-0.742-1.43-1.082 0.185 0.62 0.285 1.278 0.285 1.959 0 3.774-3.059 6.833-6.833 6.833s-6.833-3.059-6.833-6.833c0-0.681 0.1-1.338 0.285-1.959-0.505 0.34-0.983 0.704-1.43 1.082-1.053 0.889-1.893 1.819-2.457 2.602-0.283 0.393-0.483 0.729-0.606 0.988-0.071 0.149-0.102 0.242-0.115 0.287zM11.001 15.833c0-2.301 1.865-4.167 4.167-4.167s4.167 1.865 4.167 4.167c0 2.301-1.865 4.167-4.167 4.167s-4.167-1.865-4.167-4.167z"></path>
</symbol>
<symbol id="icon-facebook" viewBox="0 0 32 32">
<path d="M23.417 1.339l-3.703-0.006c-4.16 0-6.849 2.833-6.849 7.219v3.328h-3.723c-0.322 0-0.582 0.268-0.582 0.598v4.823c0 0.33 0.261 0.598 0.582 0.598h3.723v12.169c0 0.331 0.261 0.598 0.582 0.598h4.858c0.322 0 0.582-0.268 0.582-0.598v-12.169h4.353c0.322 0 0.582-0.268 0.582-0.598l0.002-4.823c0-0.159-0.062-0.311-0.171-0.423s-0.258-0.175-0.412-0.175h-4.355v-2.822c0-1.356 0.315-2.045 2.034-2.045l2.495-0.001c0.321 0 0.582-0.268 0.582-0.598v-4.478c0-0.33-0.26-0.598-0.581-0.598z"></path>
</symbol>
<symbol id="icon-files" viewBox="0 0 32 32">
<path d="M10.667 17.999c0-0.736 0.597-1.333 1.333-1.333h8c0.736 0 1.333 0.597 1.333 1.333s-0.597 1.333-1.333 1.333h-8c-0.736 0-1.333-0.597-1.333-1.333z"></path>
<path d="M10.667 22.999c0-0.736 0.597-1.333 1.333-1.333h4c0.736 0 1.333 0.597 1.333 1.333s-0.597 1.333-1.333 1.333h-4c-0.736 0-1.333-0.597-1.333-1.333z"></path>
<path d="M12.058 2.057c0.25-0.25 0.589-0.391 0.943-0.391h9c2.945 0 5.333 2.388 5.333 5.333v18c0 2.945-2.388 5.333-5.333 5.333h-12c-2.946 0-5.333-2.388-5.333-5.333l0-15c0-0.354 0.14-0.693 0.391-0.943l7-7zM12.667 5.218v4.448h-4.448l4.448-4.448zM7.334 12.333l-0 12.667c0 1.473 1.194 2.667 2.667 2.667h12c1.473 0 2.667-1.194 2.667-2.667v-18c0-1.473-1.194-2.667-2.667-2.667h-6.667v6.667c0 0.736-0.597 1.333-1.333 1.333h-6.667z"></path>
</symbol>
<symbol id="icon-ic-calendar" viewBox="0 0 32 32">
<path fill="#ff3f3a" style="fill: var(--color6, #ff3f3a)" d="M29.087 11.808c-0.116-0.116-0.277-0.183-0.442-0.183s-0.326 0.067-0.442 0.183c-0.116 0.116-0.183 0.277-0.183 0.442s0.067 0.326 0.183 0.442c0.116 0.116 0.277 0.183 0.442 0.183s0.326-0.067 0.442-0.183c0.116-0.116 0.183-0.277 0.183-0.442s-0.067-0.326-0.183-0.442z"></path>
<path fill="#ff3f3a" style="fill: var(--color6, #ff3f3a)" d="M28.521 4.625h-0.716c0.111-0.113 0.179-0.267 0.179-0.438v-0.813c0-1.172-0.953-2.125-2.125-2.125s-2.125 0.953-2.125 2.125v1.25h-5.796c0.111-0.113 0.179-0.267 0.179-0.438v-0.813c0-1.172-0.953-2.125-2.125-2.125s-2.125 0.953-2.125 2.125v1.25h-5.796c0.111-0.113 0.179-0.267 0.179-0.438v-0.813c0-1.172-0.953-2.125-2.125-2.125s-2.125 0.953-2.125 2.125v1.25h-0.521c-1.918 0-3.479 1.561-3.479 3.479v20.771c0 1.034 0.841 1.875 1.875 1.875h10.792c0.345 0 0.625-0.28 0.625-0.625s-0.28-0.625-0.625-0.625h-10.792c-0.345 0-0.625-0.28-0.625-0.625v-16h24.334c0.345 0 0.625-0.28 0.625-0.625s-0.28-0.625-0.625-0.625h-24.334v-3.521c0-1.229 1-2.229 2.229-2.229h0.521v1.51c0 1.172 0.953 2.125 2.125 2.125s2.125-0.953 2.125-2.125c0-0.345-0.28-0.625-0.625-0.625s-0.625 0.28-0.625 0.625c0 0.483-0.393 0.875-0.875 0.875s-0.875-0.392-0.875-0.875v-1.51h8.617v1.51c0 1.172 0.953 2.125 2.125 2.125s2.125-0.953 2.125-2.125c0-0.345-0.28-0.625-0.625-0.625s-0.625 0.28-0.625 0.625c0 0.483-0.393 0.875-0.875 0.875s-0.875-0.392-0.875-0.875v-1.51h8.617v1.51c0 1.172 0.953 2.125 2.125 2.125s2.125-0.953 2.125-2.125c0-0.345-0.28-0.625-0.625-0.625s-0.625 0.28-0.625 0.625c0 0.483-0.393 0.875-0.875 0.875s-0.875-0.392-0.875-0.875v-1.51h3.537c1.229 0 2.229 1 2.229 2.229v20.771c0 0.345-0.28 0.625-0.625 0.625h-10.792c-0.345 0-0.625 0.28-0.625 0.625s0.28 0.625 0.625 0.625h10.792c1.034 0 1.875-0.841 1.875-1.875v-20.771c0-1.918-1.561-3.479-3.479-3.479zM5.25 4.625v-1.25c0-0.482 0.393-0.875 0.875-0.875s0.875 0.393 0.875 0.875v0.813c0 0.17 0.068 0.325 0.179 0.438h-1.929zM15.117 4.625v-1.25c0-0.482 0.392-0.875 0.875-0.875s0.875 0.393 0.875 0.875v0.813c0 0.17 0.068 0.325 0.179 0.438h-1.929zM24.984 4.625v-1.25c0-0.482 0.392-0.875 0.875-0.875s0.875 0.393 0.875 0.875v0.813c0 0.17 0.068 0.325 0.179 0.438h-1.929z"></path>
<path fill="#ff3f3a" style="fill: var(--color6, #ff3f3a)" d="M6 14.875c-1.447 0-2.625 1.178-2.625 2.625s1.178 2.625 2.625 2.625c1.447 0 2.625-1.178 2.625-2.625s-1.178-2.625-2.625-2.625zM6 18.875c-0.758 0-1.375-0.617-1.375-1.375s0.617-1.375 1.375-1.375c0.758 0 1.375 0.617 1.375 1.375s-0.617 1.375-1.375 1.375z"></path>
<path fill="#ff3f3a" style="fill: var(--color6, #ff3f3a)" d="M26 14.875c-1.447 0-2.625 1.178-2.625 2.625s1.178 2.625 2.625 2.625c1.447 0 2.625-1.178 2.625-2.625s-1.178-2.625-2.625-2.625zM26 18.875c-0.758 0-1.375-0.617-1.375-1.375s0.617-1.375 1.375-1.375c0.758 0 1.375 0.617 1.375 1.375s-0.617 1.375-1.375 1.375z"></path>
<path fill="#ff3f3a" style="fill: var(--color6, #ff3f3a)" d="M19.334 14.875c-1.447 0-2.625 1.178-2.625 2.625s1.178 2.625 2.625 2.625c1.447 0 2.625-1.178 2.625-2.625s-1.178-2.625-2.625-2.625zM19.334 18.875c-0.758 0-1.375-0.617-1.375-1.375s0.617-1.375 1.375-1.375c0.758 0 1.375 0.617 1.375 1.375s-0.617 1.375-1.375 1.375z"></path>
<path fill="#ff3f3a" style="fill: var(--color6, #ff3f3a)" d="M12.666 14.875c-1.447 0-2.625 1.178-2.625 2.625s1.178 2.625 2.625 2.625c1.447 0 2.625-1.178 2.625-2.625s-1.178-2.625-2.625-2.625zM12.666 18.875c-0.758 0-1.375-0.617-1.375-1.375s0.617-1.375 1.375-1.375c0.758 0 1.375 0.617 1.375 1.375s-0.617 1.375-1.375 1.375z"></path>
<path fill="#ff3f3a" style="fill: var(--color6, #ff3f3a)" d="M6 22.5c-1.447 0-2.625 1.178-2.625 2.625s1.178 2.625 2.625 2.625c1.447 0 2.625-1.178 2.625-2.625s-1.178-2.625-2.625-2.625zM6 26.5c-0.758 0-1.375-0.617-1.375-1.375s0.617-1.375 1.375-1.375c0.758 0 1.375 0.617 1.375 1.375s-0.617 1.375-1.375 1.375z"></path>
<path fill="#ff3f3a" style="fill: var(--color6, #ff3f3a)" d="M19.334 22.5c-1.447 0-2.625 1.178-2.625 2.625s1.178 2.625 2.625 2.625c1.447 0 2.625-1.178 2.625-2.625s-1.178-2.625-2.625-2.625zM19.334 26.5c-0.758 0-1.375-0.617-1.375-1.375s0.617-1.375 1.375-1.375c0.758 0 1.375 0.617 1.375 1.375s-0.617 1.375-1.375 1.375z"></path>
<path fill="#ff3f3a" style="fill: var(--color6, #ff3f3a)" d="M26 22.5c-1.447 0-2.625 1.178-2.625 2.625s1.178 2.625 2.625 2.625c1.447 0 2.625-1.178 2.625-2.625s-1.178-2.625-2.625-2.625zM26 26.5c-0.758 0-1.375-0.617-1.375-1.375s0.617-1.375 1.375-1.375c0.758 0 1.375 0.617 1.375 1.375s-0.617 1.375-1.375 1.375z"></path>
<path fill="#ff3f3a" style="fill: var(--color6, #ff3f3a)" d="M12.666 22.5c-1.447 0-2.625 1.178-2.625 2.625s1.178 2.625 2.625 2.625c1.447 0 2.625-1.178 2.625-2.625s-1.178-2.625-2.625-2.625zM12.666 26.5c-0.758 0-1.375-0.617-1.375-1.375s0.617-1.375 1.375-1.375c0.758 0 1.375 0.617 1.375 1.375s-0.617 1.375-1.375 1.375z"></path>
<path fill="#ff3f3a" style="fill: var(--color6, #ff3f3a)" d="M16.442 29.683c-0.116-0.116-0.277-0.183-0.442-0.183s-0.326 0.067-0.442 0.183c-0.117 0.116-0.183 0.277-0.183 0.442s0.066 0.326 0.183 0.442c0.116 0.116 0.277 0.183 0.442 0.183s0.326-0.067 0.442-0.183c0.116-0.116 0.183-0.277 0.183-0.442s-0.067-0.326-0.183-0.442z"></path>
</symbol>
<symbol id="icon-ic-chat" viewBox="0 0 32 32">
<path fill="#ff3f3a" style="fill: var(--color6, #ff3f3a)" d="M30.233 17.628c1.157-1.834 1.767-3.945 1.767-6.128 0-6.341-5.159-11.5-11.5-11.5-2.124 0-4.199 0.584-6.001 1.688-0.294 0.18-0.387 0.565-0.206 0.859s0.565 0.387 0.859 0.206c1.605-0.984 3.455-1.504 5.348-1.504 5.652 0 10.25 4.598 10.25 10.25 0 2.050-0.603 4.028-1.744 5.721-0.151 0.225-0.138 0.515 0.017 0.723l0.685 2.556-2.749-0.737c-0.18-0.048-0.372-0.014-0.524 0.094-1.74 1.238-3.792 1.892-5.935 1.892-1.221 0-2.415-0.213-3.55-0.633-0.799-2.944-3.122-5.267-6.066-6.066-0.42-1.136-0.633-2.329-0.633-3.551 0-1.914 0.531-3.781 1.535-5.399 0.182-0.293 0.092-0.679-0.201-0.861s-0.679-0.092-0.861 0.201c-1.128 1.816-1.724 3.911-1.724 6.058 0 1.124 0.161 2.228 0.48 3.292-0.281-0.028-0.566-0.042-0.855-0.042-4.756 0-8.625 3.869-8.625 8.625 0 1.707 0.493 3.345 1.43 4.758l-0.669 2.497c-0.058 0.216 0.004 0.446 0.162 0.604s0.388 0.219 0.604 0.162l2.558-0.686c1.362 0.845 2.926 1.291 4.54 1.291 1.643 0 3.241-0.464 4.621-1.341 0.291-0.185 0.377-0.571 0.192-0.863s-0.572-0.377-0.863-0.192c-1.18 0.75-2.546 1.146-3.951 1.146-1.462 0-2.876-0.427-4.088-1.236-0.15-0.1-0.335-0.13-0.509-0.084l-1.78 0.477 0.463-1.729c0.048-0.18 0.014-0.373-0.095-0.525-0.894-1.254-1.367-2.733-1.367-4.278 0-4.067 3.308-7.375 7.375-7.375s7.375 3.308 7.375 7.375c0 0.868-0.149 1.718-0.444 2.526-0.118 0.324 0.049 0.683 0.373 0.801s0.683-0.049 0.801-0.373c0.345-0.945 0.519-1.939 0.519-2.954 0-0.288-0.014-0.573-0.042-0.854 1.065 0.318 2.169 0.479 3.292 0.479 2.305 0 4.516-0.675 6.415-1.954l3.515 0.942c0.216 0.058 0.446-0.004 0.604-0.162s0.22-0.388 0.162-0.604l-0.963-3.594z"></path>
<path fill="#ff3f3a" style="fill: var(--color6, #ff3f3a)" d="M23.722 12.831h-6.366c-0.345 0-0.625 0.28-0.625 0.625 0 2.1 1.708 3.808 3.808 3.808s3.808-1.708 3.808-3.808c-0-0.345-0.28-0.625-0.625-0.625zM20.539 16.014c-1.195 0-2.201-0.824-2.481-1.933h4.961c-0.28 1.109-1.286 1.933-2.481 1.933z"></path>
<path fill="#ff3f3a" style="fill: var(--color6, #ff3f3a)" d="M25.405 9.364c-0.181-0.294-0.566-0.385-0.86-0.204l-0.082 0.050c-0.294 0.181-0.385 0.567-0.203 0.86 0.118 0.191 0.323 0.297 0.532 0.297 0.112 0 0.226-0.030 0.328-0.093l0.080-0.049c0.294-0.181 0.385-0.566 0.204-0.86z"></path>
<path fill="#ff3f3a" style="fill: var(--color6, #ff3f3a)" d="M16.818 9.364c-0.181-0.294-0.566-0.385-0.86-0.204l-0.081 0.050c-0.294 0.181-0.385 0.567-0.203 0.86 0.118 0.191 0.323 0.297 0.532 0.297 0.112 0 0.226-0.030 0.328-0.093l0.080-0.049c0.294-0.181 0.385-0.566 0.204-0.86z"></path>
<path fill="#ff3f3a" style="fill: var(--color6, #ff3f3a)" d="M5.629 22.933c-0.116-0.116-0.277-0.183-0.442-0.183s-0.326 0.067-0.442 0.183c-0.116 0.116-0.183 0.277-0.183 0.442s0.067 0.326 0.183 0.442c0.116 0.116 0.277 0.183 0.442 0.183s0.326-0.067 0.442-0.183c0.116-0.116 0.183-0.277 0.183-0.442s-0.067-0.326-0.183-0.442z"></path>
<path fill="#ff3f3a" style="fill: var(--color6, #ff3f3a)" d="M9.066 22.933c-0.116-0.116-0.277-0.183-0.442-0.183s-0.326 0.067-0.442 0.183c-0.116 0.116-0.183 0.277-0.183 0.442s0.067 0.326 0.183 0.442c0.116 0.116 0.278 0.183 0.442 0.183s0.326-0.067 0.442-0.183c0.116-0.116 0.183-0.277 0.183-0.442s-0.067-0.326-0.183-0.442z"></path>
<path fill="#ff3f3a" style="fill: var(--color6, #ff3f3a)" d="M12.504 22.933c-0.116-0.116-0.278-0.183-0.442-0.183s-0.326 0.067-0.442 0.183c-0.116 0.116-0.183 0.277-0.183 0.442s0.067 0.326 0.183 0.442c0.116 0.116 0.278 0.183 0.442 0.183s0.326-0.067 0.442-0.183c0.116-0.116 0.183-0.277 0.183-0.442s-0.067-0.326-0.183-0.442z"></path>
<path fill="#ff3f3a" style="fill: var(--color6, #ff3f3a)" d="M15.302 27.945c-0.116-0.116-0.278-0.183-0.442-0.183s-0.326 0.067-0.442 0.183c-0.116 0.116-0.183 0.278-0.183 0.442s0.067 0.326 0.183 0.442c0.116 0.116 0.277 0.183 0.442 0.183s0.326-0.067 0.442-0.183c0.116-0.116 0.183-0.278 0.183-0.442s-0.067-0.326-0.183-0.442z"></path>
<path fill="#ff3f3a" style="fill: var(--color6, #ff3f3a)" d="M13.273 3.348c-0.116-0.116-0.278-0.183-0.442-0.183s-0.326 0.066-0.442 0.183c-0.117 0.117-0.183 0.277-0.183 0.442s0.066 0.326 0.183 0.442c0.116 0.116 0.277 0.183 0.442 0.183s0.326-0.066 0.442-0.183 0.183-0.277 0.183-0.442c0-0.165-0.067-0.326-0.183-0.442z"></path>
</symbol>
<symbol id="icon-ic-structure" viewBox="0 0 32 32">
<path fill="#ff3f3a" style="fill: var(--color6, #ff3f3a)" d="M21.868 15.746c-0.116-0.116-0.277-0.183-0.442-0.183s-0.325 0.067-0.442 0.183c-0.116 0.116-0.183 0.277-0.183 0.442s0.067 0.325 0.183 0.442c0.116 0.116 0.277 0.183 0.442 0.183s0.325-0.067 0.442-0.183c0.116-0.116 0.183-0.277 0.183-0.442s-0.067-0.325-0.183-0.442z"></path>
<path fill="#ff3f3a" style="fill: var(--color6, #ff3f3a)" d="M25.987 1.695h-19.99c-0.345 0-0.625 0.28-0.625 0.625v9.995c0 0.345 0.28 0.625 0.625 0.625h9.37v2.624h-10.672c-0.345 0-0.625 0.28-0.625 0.625v4.873h-3.446c-0.345 0-0.625 0.28-0.625 0.625v7.996c0 0.345 0.28 0.625 0.625 0.625h7.996c0.345 0 0.625-0.28 0.625-0.625v-7.996c0-0.345-0.28-0.625-0.625-0.625h-3.3v-4.248h10.047v4.248h-3.365c-0.345 0-0.625 0.28-0.625 0.625v7.996c0 0.345 0.28 0.625 0.625 0.625h7.996c0.345 0 0.625-0.28 0.625-0.625v-7.996c0-0.345-0.28-0.625-0.625-0.625h-3.381v-4.248h2.499c0.345 0 0.625-0.28 0.625-0.625s-0.28-0.625-0.625-0.625h-2.499v-2.624h9.37c0.345 0 0.625-0.28 0.625-0.625v-9.995c-0-0.345-0.28-0.625-0.625-0.625zM7.996 22.309v6.747h-6.747v-6.747h6.747zM19.373 22.309v6.747h-6.747v-6.747h6.747zM25.362 11.69h-18.741v-6.247h4.232c0.345 0 0.625-0.28 0.625-0.625s-0.28-0.625-0.625-0.625h-4.232v-1.249h18.741v8.746h0z"></path>
<path fill="#ff3f3a" style="fill: var(--color6, #ff3f3a)" d="M31.376 21.060h-3.462v-4.873c0-0.345-0.28-0.625-0.625-0.625h-3.425c-0.345 0-0.625 0.28-0.625 0.625s0.28 0.625 0.625 0.625h2.801v4.248h-3.284c-0.345 0-0.625 0.28-0.625 0.625v7.996c0 0.345 0.28 0.625 0.625 0.625h7.996c0.345 0 0.625-0.28 0.625-0.625v-7.996c0-0.345-0.28-0.625-0.625-0.625zM30.751 29.056h-6.747v-6.747h6.747v6.747z"></path>
<path fill="#ff3f3a" style="fill: var(--color6, #ff3f3a)" d="M13.923 4.376c-0.116-0.116-0.277-0.183-0.442-0.183s-0.325 0.067-0.442 0.183c-0.116 0.116-0.182 0.277-0.182 0.442s0.066 0.325 0.182 0.442c0.117 0.116 0.278 0.183 0.442 0.183s0.325-0.067 0.442-0.183c0.116-0.116 0.183-0.277 0.183-0.442s-0.067-0.325-0.183-0.442z"></path>
</symbol>
<symbol id="icon-ic-target" viewBox="0 0 32 32">
<path fill="#ff3f3a" style="fill: var(--color6, #ff3f3a)" d="M22.199 24.667c-0.212-0.221-0.604-0.284-0.892-0.008-0.002 0.002-0.004 0.004-0.006 0.006-0.284 0.28-0.233 0.673-0.019 0.892 0.114 0.116 0.278 0.188 0.449 0.188 0.152 0 0.309-0.056 0.443-0.186 0.286-0.278 0.238-0.672 0.025-0.892z"></path>
<path fill="#ff3f3a" style="fill: var(--color6, #ff3f3a)" d="M27.858 12.635c-0.12-0.324-0.479-0.489-0.803-0.369s-0.489 0.479-0.369 0.803c0.54 1.457 0.813 2.99 0.813 4.558 0 7.236-5.887 13.123-13.123 13.123-2.685 0-5.266-0.805-7.465-2.328-0.284-0.197-0.673-0.126-0.87 0.158s-0.126 0.673 0.158 0.87c2.408 1.669 5.236 2.551 8.177 2.551 3.839 0 7.448-1.495 10.163-4.21s4.21-6.324 4.21-10.163c-0-1.717-0.3-3.396-0.891-4.992z"></path>
<path fill="#ff3f3a" style="fill: var(--color6, #ff3f3a)" d="M19.215 4.089c-1.55-0.554-3.179-0.835-4.84-0.835-3.839 0-7.449 1.495-10.163 4.21s-4.21 6.324-4.21 10.163c0 2.977 0.902 5.834 2.609 8.26 0.122 0.173 0.315 0.265 0.512 0.265 0.124 0 0.25-0.037 0.359-0.114 0.282-0.199 0.35-0.588 0.152-0.871-1.558-2.215-2.382-4.823-2.382-7.541 0-7.236 5.887-13.123 13.123-13.123 1.517 0 3.004 0.256 4.419 0.762 0.325 0.116 0.683-0.053 0.799-0.378s-0.053-0.683-0.378-0.799z"></path>
<path fill="#ff3f3a" style="fill: var(--color6, #ff3f3a)" d="M31.95 5.183c-0.097-0.234-0.325-0.386-0.577-0.386h-3.284l0.353-0.353c0.244-0.244 0.244-0.64 0-0.884s-0.64-0.244-0.884 0l-0.358 0.358v-3.292c0-0.253-0.152-0.481-0.386-0.577s-0.502-0.043-0.681 0.135l-5.509 5.509c-0.117 0.117-0.183 0.276-0.183 0.442v2.168c-1.803-1.179-3.881-1.798-6.067-1.798-6.133 0-11.123 4.99-11.123 11.123s4.99 11.123 11.123 11.123c2.036 0 4.027-0.555 5.76-1.605 0.295-0.179 0.389-0.563 0.21-0.858s-0.563-0.389-0.858-0.21c-1.537 0.932-3.304 1.424-5.112 1.424-5.444 0-9.874-4.429-9.874-9.874s4.429-9.874 9.874-9.874c2.223 0 4.32 0.721 6.067 2.084v0.839l-1.139 1.139c-1.33-1.129-3.051-1.812-4.928-1.812-4.204 0-7.624 3.42-7.624 7.624s3.42 7.624 7.624 7.624c4.204 0 7.624-3.42 7.624-7.624 0-1.877-0.682-3.598-1.812-4.928l1.143-1.143h0.831c1.347 1.727 2.087 3.874 2.087 6.071 0 1.842-0.511 3.639-1.476 5.196-0.182 0.293-0.092 0.678 0.202 0.86 0.103 0.064 0.216 0.094 0.329 0.094 0.209 0 0.413-0.105 0.532-0.296 1.089-1.755 1.664-3.78 1.664-5.855 0-2.159-0.634-4.275-1.803-6.071h2.168c0.166 0 0.325-0.066 0.442-0.183l5.509-5.509c0.179-0.178 0.232-0.447 0.136-0.681zM20.749 17.627c0 3.515-2.859 6.374-6.374 6.374s-6.374-2.859-6.374-6.374 2.859-6.374 6.374-6.374c1.533 0 2.941 0.544 4.042 1.449l-1.423 1.423c-0.73-0.548-1.637-0.872-2.618-0.872-2.412 0-4.374 1.962-4.374 4.374s1.962 4.374 4.374 4.374c2.412 0 4.374-1.962 4.374-4.374 0-0.981-0.325-1.888-0.872-2.618l1.423-1.423c0.905 1.101 1.449 2.509 1.449 4.042zM13.933 18.069c0.122 0.122 0.282 0.183 0.442 0.183s0.32-0.061 0.442-0.183l2.164-2.164c0.328 0.494 0.519 1.086 0.519 1.722 0 1.723-1.402 3.125-3.125 3.125s-3.125-1.402-3.125-3.125 1.402-3.125 3.125-3.125c0.636 0 1.228 0.191 1.722 0.519l-2.164 2.164c-0.244 0.244-0.244 0.64 0 0.884zM21.692 9.426v-3.034l4.259-4.259v3.034l-4.259 4.259zM25.605 10.306h-3.025l4.259-4.259h3.025l-4.259 4.259z"></path>
<path fill="#ff3f3a" style="fill: var(--color6, #ff3f3a)" d="M5.083 26.893c-0.116-0.116-0.277-0.183-0.442-0.183s-0.326 0.067-0.442 0.183c-0.117 0.116-0.183 0.277-0.183 0.442s0.066 0.326 0.183 0.442c0.116 0.116 0.277 0.183 0.442 0.183s0.326-0.067 0.442-0.183c0.116-0.116 0.183-0.277 0.183-0.442s-0.067-0.325-0.183-0.442z"></path>
</symbol>
<symbol id="icon-instagram" viewBox="0 0 32 32">
<path d="M29.307 10.507c-0.062-1.417-0.292-2.391-0.62-3.235-0.339-0.896-0.86-1.698-1.542-2.365-0.667-0.677-1.474-1.203-2.36-1.537-0.849-0.328-1.818-0.557-3.235-0.62-1.428-0.068-1.881-0.083-5.501-0.083s-4.074 0.016-5.496 0.078c-1.417 0.062-2.391 0.292-3.235 0.62-0.896 0.339-1.698 0.86-2.365 1.542-0.677 0.667-1.203 1.474-1.537 2.36-0.328 0.849-0.557 1.818-0.62 3.235-0.068 1.427-0.083 1.881-0.083 5.501s0.016 4.074 0.078 5.496c0.062 1.417 0.292 2.391 0.62 3.235 0.339 0.896 0.865 1.698 1.542 2.365 0.667 0.677 1.474 1.203 2.36 1.537 0.849 0.328 1.818 0.557 3.235 0.62 1.422 0.063 1.875 0.078 5.496 0.078s4.074-0.015 5.496-0.078c1.417-0.062 2.391-0.292 3.235-0.62 1.792-0.693 3.209-2.11 3.902-3.902 0.328-0.849 0.557-1.818 0.62-3.235 0.063-1.422 0.078-1.875 0.078-5.496s-0.005-4.074-0.068-5.496zM26.906 21.394c-0.057 1.302-0.276 2.006-0.459 2.474-0.448 1.162-1.37 2.084-2.532 2.532-0.469 0.182-1.177 0.401-2.475 0.458-1.406 0.063-1.828 0.078-5.386 0.078s-3.985-0.015-5.387-0.078c-1.302-0.057-2.006-0.276-2.474-0.458-0.578-0.214-1.104-0.552-1.531-0.995-0.443-0.432-0.781-0.953-0.995-1.531-0.182-0.469-0.401-1.177-0.458-2.474-0.063-1.407-0.078-1.829-0.078-5.387s0.015-3.985 0.078-5.386c0.057-1.302 0.276-2.006 0.458-2.474 0.214-0.578 0.552-1.104 1-1.532 0.432-0.443 0.953-0.781 1.531-0.995 0.469-0.182 1.177-0.401 2.474-0.458 1.407-0.062 1.829-0.078 5.386-0.078 3.563 0 3.985 0.016 5.387 0.078 1.302 0.057 2.006 0.276 2.474 0.458 0.578 0.213 1.104 0.552 1.531 0.995 0.443 0.432 0.781 0.953 0.995 1.532 0.182 0.469 0.401 1.177 0.459 2.474 0.062 1.407 0.078 1.828 0.078 5.386s-0.016 3.975-0.078 5.381z"></path>
<path d="M16.049 9.152c-3.782 0-6.85 3.068-6.85 6.85s3.068 6.85 6.85 6.85c3.782 0 6.85-3.068 6.85-6.85s-3.068-6.85-6.85-6.85zM16.049 20.446c-2.453 0-4.444-1.99-4.444-4.444s1.99-4.444 4.444-4.444c2.454 0 4.444 1.99 4.444 4.444s-1.99 4.444-4.444 4.444z"></path>
<path d="M24.77 8.881c0 0.883-0.716 1.599-1.599 1.599s-1.599-0.716-1.599-1.599c0-0.883 0.716-1.599 1.599-1.599s1.599 0.716 1.599 1.599z"></path>
</symbol>
<symbol id="icon-iPhone" viewBox="0 0 32 32">
<path d="M11.334 3.897c-1.105 0-2 0.895-2 2v20.208c0 1.105 0.895 2 2 2h9.333c1.105 0 2-0.895 2-2v-20.208c0-1.105-0.895-2-2-2h-0.111l-0.325 0.779c-0.207 0.497-0.692 0.82-1.231 0.82h-6c-0.538 0-1.024-0.324-1.231-0.82l-0.325-0.779h-0.111zM6.667 5.897c0-2.577 2.089-4.667 4.667-4.667h9.333c2.577 0 4.667 2.089 4.667 4.667v20.208c0 2.577-2.089 4.667-4.667 4.667h-9.333c-2.577 0-4.667-2.089-4.667-4.667v-20.208z"></path>
</symbol>
<symbol id="icon-layouts" viewBox="0 0 32 32">
<path d="M15.404 1.473c0.375-0.188 0.817-0.188 1.193 0l13.333 6.667c0.452 0.226 0.737 0.688 0.737 1.193s-0.285 0.967-0.737 1.193l-13.333 6.667c-0.375 0.188-0.817 0.188-1.193 0l-13.333-6.667c-0.452-0.226-0.737-0.688-0.737-1.193s0.285-0.967 0.737-1.193l13.333-6.667zM5.648 9.332l10.352 5.176 10.352-5.176-10.352-5.176-10.352 5.176z"></path>
<path  d="M1.474 15.402c0.329-0.659 1.13-0.926 1.789-0.596l12.737 6.368 12.737-6.368c0.659-0.329 1.46-0.062 1.789 0.596s0.062 1.46-0.596 1.789l-13.333 6.667c-0.375 0.188-0.817 0.188-1.193 0l-13.333-6.667c-0.659-0.329-0.926-1.13-0.596-1.789z"></path>
<path  d="M1.474 22.069c0.329-0.659 1.13-0.926 1.789-0.596l12.737 6.369 12.737-6.369c0.659-0.329 1.46-0.062 1.789 0.596s0.062 1.46-0.596 1.789l-13.333 6.667c-0.375 0.188-0.817 0.188-1.193 0l-13.333-6.667c-0.659-0.329-0.926-1.13-0.596-1.789z"></path>
</symbol>
<symbol id="icon-like" viewBox="0 0 32 32">
<path  d="M18.909 4.335c-0.186 0-0.358 0.099-0.453 0.26l-0.008 0.014-6.115 9.914v13.146h11.448c0.246 0 0.458-0.171 0.511-0.41l0.005-0.021 3.4-13.28c0.062-0.322-0.184-0.623-0.514-0.623h-5.183c-0.868 0-1.747-0.29-2.386-0.914-0.672-0.656-0.984-1.596-0.784-2.609l0.958-4.851c0.064-0.324-0.184-0.625-0.514-0.625h-0.365zM9.667 27.668v-12.191h-4.725c-0.288 0-0.522 0.232-0.524 0.52 0 0 0 0 0 0l-0.085 11.143c-0.002 0.291 0.233 0.528 0.524 0.528h4.81zM10.256 12.811l5.907-9.576c0.574-0.97 1.618-1.567 2.746-1.567h0.365c2.010 0 3.52 1.837 3.13 3.809l-0.958 4.851c-0.017 0.086-0.006 0.126-0.003 0.134s0.009 0.026 0.034 0.049c0.056 0.054 0.222 0.156 0.524 0.156h5.183c2.041 0 3.557 1.89 3.114 3.883l-0.005 0.021-3.402 13.288c-0.333 1.447-1.622 2.475-3.109 2.475h-18.924c-1.771 0-3.204-1.443-3.19-3.215 0 0 0 0 0 0l0.085-11.143c0.013-1.752 1.438-3.166 3.19-3.166h5.314z"></path>
</symbol>
<symbol id="icon-linked-in" viewBox="0 0 32 32">
<path d="M29.327 29.333l0.007-0.001v-9.78c0-4.785-1.030-8.47-6.623-8.47-2.689 0-4.493 1.476-5.23 2.874h-0.078v-2.428h-5.303v17.803h5.522v-8.816c0-2.321 0.44-4.566 3.315-4.566 2.832 0 2.874 2.649 2.874 4.715v8.668h5.517z"></path>
<path d="M3.107 11.53h5.529v17.803h-5.529v-17.803z"></path>
<path d="M5.869 2.667c-1.768 0-3.202 1.434-3.202 3.202s1.434 3.232 3.202 3.232c1.768 0 3.202-1.464 3.202-3.232-0.001-1.768-1.436-3.202-3.202-3.202z"></path>
</symbol>
<symbol id="icon-menu-column" viewBox="0 0 32 32">
<path d="M1.333 4.666c0-1.841 1.492-3.333 3.333-3.333h22.667c1.841 0 3.333 1.492 3.333 3.333v6.667c0 1.841-1.492 3.333-3.333 3.333h-22.667c-1.841 0-3.333-1.492-3.333-3.333v-6.667zM4.667 3.999c-0.368 0-0.667 0.298-0.667 0.667v6.667c0 0.368 0.298 0.667 0.667 0.667h22.667c0.368 0 0.667-0.298 0.667-0.667v-6.667c0-0.368-0.298-0.667-0.667-0.667h-22.667z"></path>
<path d="M1.333 20.666c0-1.841 1.492-3.333 3.333-3.333h22.667c1.841 0 3.333 1.492 3.333 3.333v6.667c0 1.841-1.492 3.333-3.333 3.333h-22.667c-1.841 0-3.333-1.492-3.333-3.333v-6.667zM4.667 20c-0.368 0-0.667 0.298-0.667 0.667v6.667c0 0.368 0.298 0.667 0.667 0.667h22.667c0.368 0 0.667-0.299 0.667-0.667v-6.667c0-0.368-0.298-0.667-0.667-0.667h-22.667z"></path>
</symbol>
<symbol id="icon-mail" viewBox="0 0 32 32">
<path d="M30.334 23.999v-14.667c0-2.209-1.791-4-4-4l-20.667 0c-2.209 0-4 1.791-4 4v14.667c0 2.209 1.791 4 4 4h20.667c2.209 0 4-1.791 4-4zM27.667 12.345v11.654c0 0.736-0.597 1.333-1.333 1.333h-20.667c-0.736 0-1.333-0.597-1.333-1.333v-11.654l9.418 6.404c1.357 0.923 3.141 0.923 4.498 0l9.417-6.404zM27.652 9.13l-10.902 7.413c-0.452 0.308-1.047 0.308-1.499 0l-10.902-7.413c0.097-0.64 0.65-1.131 1.318-1.131l20.667-0c0.668 0 1.221 0.491 1.318 1.131z"></path>
</symbol>
<symbol id="icon-mic" viewBox="0 0 32 32">
<path fill="#9a9ca5" style="fill: var(--color3, #9a9ca5)" d="M8.267 8.534c0-4.271 3.462-7.733 7.733-7.733s7.733 3.462 7.733 7.733v6.4c0 4.271-3.462 7.733-7.733 7.733s-7.733-3.462-7.733-7.733v-6.4zM16 3.467c-2.798 0-5.067 2.268-5.067 5.067v6.4c0 2.798 2.268 5.067 5.067 5.067s5.067-2.268 5.067-5.067v-6.4c0-2.798-2.268-5.067-5.067-5.067z"></path>
<path fill="#9a9ca5" style="fill: var(--color3, #9a9ca5)" d="M5.333 11.467c0.736 0 1.333 0.597 1.333 1.333v2.133c0 5.155 4.179 9.333 9.333 9.333s9.333-4.179 9.333-9.333v-2.133c0-0.736 0.597-1.333 1.333-1.333s1.333 0.597 1.333 1.333v2.133c0 6.627-5.373 12-12 12s-12-5.373-12-12v-2.133c0-0.736 0.597-1.333 1.333-1.333z"></path>
<path fill="#9a9ca5" style="fill: var(--color3, #9a9ca5)" d="M16 25.334c0.736 0 1.333 0.597 1.333 1.333v1.867h2.933c0.736 0 1.333 0.597 1.333 1.333s-0.597 1.333-1.333 1.333h-8.533c-0.736 0-1.333-0.597-1.333-1.333s0.597-1.333 1.333-1.333h2.933v-1.867c0-0.736 0.597-1.333 1.333-1.333z"></path>
</symbol>
<symbol id="icon-Minus" viewBox="0 0 32 32">
<path fill="#ff3f3a" style="fill: var(--color6, #ff3f3a)" d="M1.333 16c0-0.736 0.597-1.333 1.333-1.333v2.667c-0.736 0-1.333-0.597-1.333-1.333zM29.333 16l-0 1.333h-26.667v-2.667h26.666l0.001 1.333zM29.333 16l-0 1.333c0.736 0 1.333-0.597 1.333-1.333s-0.598-1.333-1.334-1.333l0.001 1.333z"></path>
</symbol>
<symbol id="icon-outline" viewBox="0 0 32 32">
<path fill="#ff3f3a" style="fill: var(--color6, #ff3f3a)" d="M16 10.333c-1.473 0-2.667 1.194-2.667 2.667s1.194 2.667 2.667 2.667 2.667-1.194 2.667-2.667c0-1.473-1.194-2.667-2.667-2.667zM10.667 13c0-2.946 2.388-5.333 5.333-5.333s5.333 2.388 5.333 5.333c0 2.945-2.388 5.333-5.333 5.333s-5.333-2.388-5.333-5.333z"></path>
<path fill="#ff3f3a" style="fill: var(--color6, #ff3f3a)" d="M16 4.333c-4.826 0-8.667 3.781-8.667 8.359 0 3.732 2.243 7.501 4.694 10.465 1.203 1.455 2.41 2.661 3.317 3.503 0.243 0.225 0.463 0.424 0.655 0.593 0.192-0.17 0.413-0.368 0.655-0.593 0.907-0.842 2.114-2.047 3.317-3.503 2.451-2.965 4.694-6.734 4.694-10.465 0-4.578-3.841-8.359-8.667-8.359zM16 29c-0.825 1.047-0.825 1.047-0.826 1.047l-0.003-0.003-0.008-0.006-0.026-0.021c-0.022-0.018-0.053-0.043-0.093-0.075-0.079-0.065-0.193-0.159-0.337-0.281-0.287-0.243-0.693-0.597-1.178-1.047-0.968-0.899-2.261-2.19-3.558-3.757-2.549-3.082-5.306-7.467-5.306-12.165 0-6.128 5.114-11.026 11.333-11.026s11.333 4.897 11.333 11.026c0 4.698-2.757 9.083-5.306 12.165-1.297 1.568-2.59 2.859-3.558 3.757-0.485 0.45-0.891 0.804-1.178 1.047-0.143 0.122-0.257 0.216-0.337 0.281-0.040 0.032-0.071 0.057-0.093 0.075l-0.026 0.021-0.008 0.006-0.002 0.002c-0 0-0.002 0.001-0.827-1.046zM16 29l0.825 1.047c-0.484 0.381-1.167 0.381-1.651-0.001l0.826-1.047z"></path>
</symbol>
<symbol id="icon-Polygon" viewBox="0 0 25 32">
<path fill="#fff" style="fill: var(--color1, #fff)" d="M24 14.021c1.524 0.88 1.524 3.079 0 3.959l-20.571 11.877c-1.524 0.88-3.429-0.22-3.429-1.979v-23.754c0-1.76 1.905-2.859 3.429-1.979l20.571 11.877z"></path>
</symbol>
<symbol id="icon-prev-btn" viewBox="0 0 32 32">
<path  d="M12.276 22.943c-0.521 0.521-1.365 0.521-1.886 0l-6-6c-0.521-0.521-0.521-1.365 0-1.886l6-6c0.521-0.521 1.365-0.521 1.886 0s0.521 1.365 0 1.886l-3.724 3.724h18.114c0.736 0 1.333 0.597 1.333 1.333s-0.597 1.333-1.333 1.333h-18.114l3.724 3.724c0.521 0.521 0.521 1.365 0 1.886z"></path>
</symbol>
<symbol id="icon-profile" viewBox="0 0 32 32">
<path   d="M16 4.334c-2.577 0-4.667 2.089-4.667 4.667s2.089 4.667 4.667 4.667c2.577 0 4.667-2.089 4.667-4.667s-2.089-4.667-4.667-4.667zM8.667 9.001c0-4.050 3.283-7.333 7.333-7.333s7.333 3.283 7.333 7.333c0 4.050-3.283 7.333-7.333 7.333s-7.333-3.283-7.333-7.333z"></path>
<path   d="M8.139 20.334c-0.924 0-1.647 0.45-1.94 1.097-0.406 0.895-0.774 1.961-0.86 2.971-0.039 0.452 0.15 0.785 0.409 0.946 1.372 0.852 4.552 2.319 10.253 2.319s8.88-1.467 10.253-2.319c0.26-0.161 0.448-0.494 0.409-0.946-0.087-1.011-0.454-2.076-0.86-2.971-0.293-0.647-1.016-1.097-1.94-1.097h-15.723zM3.77 20.329c0.811-1.787 2.621-2.662 4.369-2.662h15.723c1.748 0 3.558 0.875 4.369 2.662 0.466 1.027 0.965 2.407 1.089 3.845 0.112 1.31-0.432 2.677-1.659 3.439-1.805 1.121-5.474 2.721-11.66 2.721s-9.855-1.6-11.66-2.721c-1.227-0.762-1.771-2.13-1.659-3.439 0.123-1.438 0.623-2.818 1.089-3.845z"></path>
</symbol>
<symbol id="icon-Right" viewBox="0 0 32 32">
<path d="M19.724 9.057c0.521-0.521 1.365-0.521 1.886 0l6 6c0.521 0.521 0.521 1.365 0 1.886l-6 6c-0.521 0.521-1.365 0.521-1.886 0s-0.521-1.365 0-1.886l3.724-3.724h-18.114c-0.736 0-1.333-0.597-1.333-1.333s0.597-1.333 1.333-1.333h18.114l-3.724-3.724c-0.521-0.521-0.521-1.365 0-1.886z"></path>
</symbol>
<symbol id="icon-search" viewBox="0 0 32 32">
<path fill="#9a9ca5" style="fill: var(--color3, #9a9ca5)" d="M14.499 4.333c-5.615 0-10.167 4.552-10.167 10.167s4.552 10.167 10.167 10.167c2.805 0 5.343-1.134 7.184-2.973 1.844-1.842 2.983-4.384 2.983-7.194 0-5.615-4.552-10.167-10.167-10.167zM1.666 14.499c0-7.088 5.746-12.833 12.833-12.833s12.833 5.746 12.833 12.833c0 3.066-1.076 5.882-2.869 8.088l5.478 5.468c0.521 0.52 0.522 1.365 0.002 1.886s-1.364 0.522-1.886 0.002l-5.481-5.471c-2.205 1.788-5.017 2.86-8.077 2.86-7.088 0-12.833-5.746-12.833-12.833z"></path>
</symbol>
<symbol id="icon-shapes-1" viewBox="0 0 60 32">
<path fill="#ffcf2d" style="fill: var(--color4, #ffcf2d)" opacity="0.2" d="M45.606 29.202c7.353 0 13.342-5.941 13.342-13.234s-5.99-13.233-13.342-13.233v26.467z"></path>
<path fill="#ffcf2d" style="fill: var(--color4, #ffcf2d)" opacity="0.2" d="M24.791 29.202c7.353 0 13.342-5.941 13.342-13.234s-5.99-13.233-13.342-13.233v26.467z"></path>
<path fill="#ffcf2d" style="fill: var(--color4, #ffcf2d)" opacity="0.2" d="M3.976 29.202c7.353 0 13.342-5.941 13.342-13.234s-5.99-13.233-13.342-13.233v26.467z"></path>
</symbol>
<symbol id="icon-Star" viewBox="0 0 32 32">
<path  d="M13.559 2.934c0.926-2.136 3.956-2.136 4.882 0l2.802 6.462 7.012 0.668c2.318 0.221 3.254 3.102 1.509 4.643l-5.28 4.662 1.531 6.875c0.506 2.273-1.945 4.053-3.95 2.87l-6.065-3.581-6.065 3.581c-2.005 1.184-4.456-0.597-3.95-2.87l1.531-6.875-5.28-4.662c-1.745-1.541-0.809-4.422 1.509-4.643l7.012-0.668 2.802-6.462zM18.802 10.455l-2.802-6.462-2.802 6.462c-0.386 0.889-1.224 1.498-2.189 1.59l-7.012 0.668 5.28 4.662c0.726 0.641 1.047 1.627 0.836 2.573l-1.531 6.875 6.065-3.581c0.834-0.493 1.871-0.493 2.705 0l6.065 3.581-1.531-6.875c-0.211-0.946 0.109-1.932 0.836-2.573l5.28-4.662-7.012-0.668c-0.965-0.092-1.803-0.701-2.189-1.59z"></path>
</symbol>
<symbol id="icon-telegram" viewBox="0 0 32 32">
<path d="M12.844 20.242l-0.485 7.445c0.694 0 0.995-0.325 1.355-0.716l3.255-3.393 6.744 5.388c1.237 0.752 2.108 0.356 2.442-1.241l4.427-22.629 0.001-0.001c0.392-1.995-0.661-2.775-1.866-2.285l-26.022 10.868c-1.776 0.752-1.749 1.832-0.302 2.321l6.653 2.257 15.453-10.548c0.727-0.525 1.388-0.235 0.845 0.291l-12.5 12.244z"></path>
</symbol>
<symbol id="icon-Twitter" viewBox="0 0 32 32">
<path d="M30 7.696c-1.031 0.437-2.136 0.734-3.298 0.866 1.186-0.68 2.094-1.759 2.525-3.041-1.113 0.63-2.341 1.087-3.65 1.335-1.048-1.071-2.539-1.737-4.192-1.737-3.172 0-5.744 2.463-5.744 5.498 0 0.431 0.051 0.851 0.149 1.253-4.773-0.23-9.005-2.419-11.838-5.746-0.495 0.811-0.777 1.756-0.777 2.764 0 1.908 1.015 3.592 2.555 4.577-0.941-0.030-1.827-0.278-2.602-0.69v0.069c0 2.664 1.981 4.887 4.607 5.393-0.481 0.124-0.989 0.193-1.513 0.193-0.371 0-0.73-0.035-1.081-0.102 0.731 2.186 2.852 3.776 5.365 3.82-1.965 1.474-4.442 2.351-7.133 2.351-0.464 0-0.92-0.027-1.37-0.075 2.542 1.563 5.56 2.475 8.804 2.475 10.566 0 16.342-8.38 16.342-15.648l-0.019-0.712c1.129-0.771 2.105-1.739 2.873-2.841z"></path>
</symbol>
<symbol id="icon-menu-row" viewBox="0 0 32 32">
<path fill="#424551" style="fill: var(--color5, #424551)" d="M1.333 4.666c0-1.841 1.492-3.333 3.333-3.333h6.667c1.841 0 3.333 1.492 3.333 3.333v6.667c0 1.841-1.492 3.333-3.333 3.333h-6.667c-1.841 0-3.333-1.492-3.333-3.333v-6.667zM4.667 3.999c-0.368 0-0.667 0.298-0.667 0.667v6.667c0 0.368 0.298 0.667 0.667 0.667h6.667c0.368 0 0.667-0.298 0.667-0.667v-6.667c0-0.368-0.298-0.667-0.667-0.667h-6.667z"></path>
<path fill="#424551" style="fill: var(--color5, #424551)" d="M1.333 20.666c0-1.841 1.492-3.333 3.333-3.333h6.667c1.841 0 3.333 1.492 3.333 3.333v6.667c0 1.841-1.492 3.333-3.333 3.333h-6.667c-1.841 0-3.333-1.492-3.333-3.333v-6.667zM4.667 20c-0.368 0-0.667 0.298-0.667 0.667v6.667c0 0.368 0.298 0.667 0.667 0.667h6.667c0.368 0 0.667-0.299 0.667-0.667v-6.667c0-0.368-0.298-0.667-0.667-0.667h-6.667z"></path>
<path fill="#424551" style="fill: var(--color5, #424551)" d="M17.333 4.666c0-1.841 1.492-3.333 3.333-3.333h6.667c1.841 0 3.333 1.492 3.333 3.333v6.667c0 1.841-1.492 3.333-3.333 3.333h-6.667c-1.841 0-3.333-1.492-3.333-3.333v-6.667zM20.667 3.999c-0.368 0-0.667 0.298-0.667 0.667v6.667c0 0.368 0.298 0.667 0.667 0.667h6.667c0.368 0 0.667-0.298 0.667-0.667v-6.667c0-0.368-0.299-0.667-0.667-0.667h-6.667z"></path>
<path fill="#424551" style="fill: var(--color5, #424551)" d="M17.333 20.666c0-1.841 1.492-3.333 3.333-3.333h6.667c1.841 0 3.333 1.492 3.333 3.333v6.667c0 1.841-1.492 3.333-3.333 3.333h-6.667c-1.841 0-3.333-1.492-3.333-3.333v-6.667zM20.667 20c-0.368 0-0.667 0.298-0.667 0.667v6.667c0 0.368 0.298 0.667 0.667 0.667h6.667c0.368 0 0.667-0.299 0.667-0.667v-6.667c0-0.368-0.299-0.667-0.667-0.667h-6.667z"></path>
</symbol>
<symbol id="icon-elipse" viewBox="0 0 32 32">
<path fill="#fff" style="fill: var(--color1, #fff)" opacity="0.3" d="M32 26.52c-7.307 7.307-19.212 7.307-26.52 0s-7.307-19.212 0-26.52l26.52 26.52z"></path>
</symbol>
<symbol id="icon-youtube" viewBox="0 0 24 18" >
<path fill-rule="evenodd" clip-rule="evenodd" d="M21.3903 1.11358C22.4182 1.39044 23.2288 2.20086 23.5055 3.22899C24.0197 5.10691 23.9999 9.02132 23.9999 9.02132C23.9999 9.02132 23.9999 12.9158 23.5057 14.7939C23.2288 15.8218 22.4184 16.6324 21.3903 16.9091C19.5122 17.4035 12 17.4035 12 17.4035C12 17.4035 4.50731 17.4035 2.60961 16.8895C1.58148 16.6127 0.771054 15.802 0.4942 14.7741C0 12.9158 0 9.00154 0 9.00154C0 9.00154 0 5.10691 0.4942 3.22899C0.770871 2.20104 1.60125 1.37066 2.60943 1.09399C4.48753 0.599609 11.9998 0.599609 11.9998 0.599609C11.9998 0.599609 19.5122 0.599609 21.3903 1.11358ZM15.8549 9.00158L9.60788 12.5996V5.40355L15.8549 9.00158Z" fill="white"/>
</symbol>
</defs>
</svg>
